<svg xmlns="http://www.w3.org/2000/svg" width="267" height="49"><path fill="#2b2a29" d="M.071 48.645h48.763V-.118H.071z"/><path fill="#faeb00" d="M1.481 47.235h45.943V1.291H1.481z"/><path fill="#2b2a29" d="M3.92 37.952l5.992 6.11 14.041-14.246 14.511 14.54 6.081-6.021L30.181 23.97l2.761-2.673v-5.7l1.733-1.47v4.468l2.233 1.82 6.668-6.668 2.144 1.645c1.263-4.67-6.05-15.275-12.102-9.4l-7.05 6.992 1.44 1.733-3.585 3.495-3.466-3.407 1.821-1.645-7.726-7.462C9.236.91 3.273 8.195 3.067 15.304l2.116-1.763 6.491 6.992 2.321-1.938v-4.29l1.44 1.087v5.61l2.82 2.82z"/><path fill="#2c2b2a" d="M96.465 16.24v4.562l-14.217 6.426 14.217 6.427v4.56l-19.672-9.204v-3.566zm21.118 20.385c-.33.166-3.06 1.534-6.324 1.534-5.826 0-10.165-4.063-10.165-10.78 0-5.597 3.388-10.739 10.165-10.739 2.19 0 4.05.498 6.324 1.576v6.302c-1.364-1.327-3.1-2.073-4.753-2.073-2.81 0-4.256 2.156-4.256 4.975 0 2.861 1.694 4.851 4.545 4.851 1.117 0 2.646-.372 4.464-1.99zm18.887-9.245c0 3.316-1.572 5.554-4.464 5.554-2.894 0-4.464-2.238-4.464-5.555 0-3.276 1.57-5.515 4.464-5.515 2.892 0 4.463 2.24 4.463 5.515zm-16.408 0c0 5.72 3.678 10.78 11.944 10.78 8.265 0 11.943-5.06 11.943-10.78 0-5.64-3.678-10.74-11.943-10.74-8.266 0-11.944 5.1-11.944 10.74zm42.525-.001c0 2.944-1.777 4.81-4.34 4.81-3.057 0-4.339-2.405-4.339-4.81 0-2.363 1.282-4.768 4.34-4.768 2.562 0 4.34 1.866 4.34 4.768zm6.653 10.034V6.938h-7.23V19.46c-1.82-2.073-3.598-2.82-6.242-2.82-6.654 0-9.34 5.639-9.34 10.739 0 6.759 4.174 10.78 9.34 10.78 2.934 0 5.124-1.285 6.53-3.11v2.364zm10.498-12.356c.123-2.156 1.61-4.064 4.049-4.064 2.604 0 3.926 1.991 4.05 4.064zm7.934 6.261c-.372 1.616-1.818 2.488-3.803 2.488-2.892 0-4.38-2.28-4.297-4.81h15.208c.166-4.478-1.488-12.356-10.993-12.356-6.818 0-10.992 4.395-10.992 10.74 0 7.006 4.876 10.78 11.074 10.78 1.737 0 8.432 0 10.746-6.842zm25.076-27.03h4.34L202.002 43.47h-4.339zm15.134 17.162v-6.675h1.983c2.893 0 3.802 1.699 3.802 3.317 0 1.7-.909 3.359-3.802 3.359zm-8.1 15.963h8.1v-9.578l6.116 9.578h9.795l-8.1-11.61c2.727-.953 6.074-3.234 6.074-8.706 0-1.328-.33-8.708-10-8.708h-11.985zm47.071-9.204l-19.672 9.205v-4.561l14.216-6.427L247.181 20v-4.561l19.672 9.205z"/></svg>