<svg xmlns="http://www.w3.org/2000/svg" width="823" height="190"><path d="M74.6 181.542h-22v8h30v-30h-8zm-74-44h8v-22h22v-8H.6zm52 22v-7h-7.413c0-1.121.296-6.908-.156-7.355-.452-.447-6.298-.155-7.431-.155v-7.49h-8v8h7.001c0 1.057-.311 6.514.165 6.936.476.42 6.64.146 7.834.146v6.918z"/><path d="M52.6 159.542v8h7.814c0 1.194-.31 7.358.166 7.835.293.292 7.563.292 7.855 0 .477-.476.1-7.717.081-7.75-.339-.553-6.891-.271-7.916-.271v-7.814zm-22-22v-8h-7.814c0-1.194.311-7.358-.165-7.835-.292-.292-7.563-.292-7.856 0-.476.476-.1 7.717-.08 7.749.339.554 6.89.272 7.915.272v7.814zm787-86h-15v5h20v-20h-5zm-51-31h5v-15h15v-5h-20zm35 15v-5h-4.941c0-.767.196-4.724-.105-5.03-.301-.306-4.199-.106-4.954-.106v-4.864h-5v5h4.999c0 .755-.194 4.653.104 4.954.298.3 4.15.105 4.897.105v4.94z"/><path d="M802.6 35.542v5h4.884c0 .747-.195 4.599.103 4.897.184.183 4.727.183 4.909 0 .297-.297.063-4.823.05-4.843-.212-.346-4.305-.17-4.946-.17v-4.884zm-16-15v-5h-4.883c0-.746.194-4.6-.104-4.896-.183-.183-4.727-.183-4.909 0-.298.297-.063 4.822-.05 4.842.212.347 4.305.17 4.946.17v4.884z"/></svg>