<svg xmlns="http://www.w3.org/2000/svg" width="415" height="86"><path fill="#2c2b2a" d="M43.6 26.197v9.968L12.525 50.213 43.6 64.26v9.971l-43-20.12v-7.795zm46 44.453c-.718.36-6.651 3.336-13.751 3.336-12.672 0-22.109-8.836-22.109-23.443 0-12.174 7.37-23.355 22.109-23.355 4.764 0 8.809 1.082 13.751 3.426V44.32c-2.965-2.885-6.74-4.508-10.335-4.508-6.112 0-9.258 4.688-9.258 10.82 0 6.222 3.685 10.55 9.886 10.55 2.428 0 5.753-.811 9.707-4.328zm40.947-20.108c0 7.213-3.414 12.082-9.705 12.082-6.293 0-9.707-4.869-9.707-12.082 0-7.124 3.414-11.993 9.707-11.993 6.291 0 9.705 4.87 9.705 11.993zm-35.679 0c0 12.443 7.998 23.443 25.974 23.443 17.974 0 25.973-11 25.973-23.443 0-12.264-7.999-23.354-25.973-23.354-17.976 0-25.974 11.09-25.974 23.354zm92.481 0c0 6.403-3.866 10.46-9.438 10.46-6.651 0-9.438-5.23-9.438-10.46 0-5.14 2.787-10.37 9.438-10.37 5.572 0 9.438 4.059 9.438 10.37zm14.251 22v-66h-16V33.32c-3.465-4.508-7.331-6.132-13.083-6.132-14.469 0-20.311 12.263-20.311 23.354 0 14.698 9.077 23.444 20.311 23.444 6.383 0 14.083-6.763 14.083-6.763v5.319zm23.044-27c.27-4.69 3.504-8.837 8.808-8.837 5.663 0 8.539 4.328 8.807 8.837zm17.177 14c-.802 3.482-3.917 5.359-8.19 5.359-6.23 0-9.435-4.913-9.255-10.36h32.754c.356-9.645-3.205-26.611-23.676-26.611-14.687 0-23.675 9.466-23.675 23.129 0 15.09 10.502 23.217 23.852 23.217 3.74 0 18.159 0 23.143-14.734zm54.585-59h9.415l-32.724 85h-9.415zm33.194 37v-15h4.457c6.501 0 8.544 3.82 8.544 7.453 0 3.82-2.043 7.547-8.544 7.547zm-18 35h18v-20.79l13.591 20.79h21.765l-18-25.2c6.062-2.07 13.499-7.02 13.499-18.9 0-2.88-.734-18.9-22.223-18.9H311.6zm103-20.176l-43 20.121v-9.97l31.076-14.048L371.6 34.421v-9.97l43 20.121z"/></svg>