<svg xmlns="http://www.w3.org/2000/svg" width="404" height="287"><path fill="#fff" d="M261.38 286.822c59.134 0 107.364-48.231 107.364-107.366S320.514 72.091 261.38 72.091s-107.364 48.23-107.364 107.365 48.23 107.366 107.364 107.366zM135.892 140.308a1.65 1.65 0 01-.568-.1l-40.705-14.66a1.683 1.683 0 01-.956-.872 1.686 1.686 0 01-.062-1.294l14.66-40.705a1.698 1.698 0 012.166-1.018l6.659 2.398a10.699 10.699 0 00.596 7.604 10.701 10.701 0 006.1 5.55c1.177.426 2.406.64 3.649.64 4.305 0 8.2-2.588 9.892-6.506l13.808 4.974a1.693 1.693 0 011.021 2.166l-6.638 21.077.788.15c.582.112 1.328.193 2.191.287 3.189.353 8.007.884 9.616 3.569.799 1.337.741 3.165-.172 5.436-1.414 3.515-3.399 5.223-6.077 5.223-3.132 0-6.5-2.368-8.31-3.64-.565-.4-.974-.687-1.278-.842l-.686-.353-4.095 9.796a1.7 1.7 0 01-1.599 1.12z"/><path fill="#fff" d="M125.63 107.542c-5.379 0-10.842-2.767-13.596-6.883-1.36-2.036-2.637-5.313-.973-9.335.68-1.641 1.59-2.943 2.704-3.867l.962-.798-5.426-1.954a1.693 1.693 0 01-1.019-2.165l14.66-40.707a1.704 1.704 0 012.166-1.02l40.402 14.55c-.11 1.794-3.654 9.839-4.833 12.35-4.527-1.94-7.922-2.845-10.648-2.845-4.176 0-6.885 2.2-8.28 6.73-1.027 3.336-.724 6.143.9 8.342 3.122 4.229 10.206 4.889 12.912 4.983l-3.399 13.453a1.7 1.7 0 01-2.155.989l-11.356-4.161-.164.818c-1.444 7.322-6.13 11.52-12.856 11.52zm96.774-42.594c-.39 0-.77-.135-1.068-.381l-33.46-27.43a1.693 1.693 0 01-.236-2.382l4.49-5.476a10.776 10.776 0 006.296 2.036c3.246 0 6.284-1.436 8.338-3.944 3.625-4.422 3.139-10.887-1-14.725l9.305-11.35a1.69 1.69 0 011.312-.617c.39 0 .772.135 1.072.38l13.762 11.282.19-1.235a8.884 8.884 0 011.912-4.28 8.885 8.885 0 016.899-3.261c2.05 0 4.056.717 5.645 2.02 3.8 3.117 4.356 8.742 1.24 12.543a8.907 8.907 0 01-3.818 2.716l-1.173.428 8.8 7.219c.722.59.83 1.658.237 2.38l-27.43 33.459a1.69 1.69 0 01-1.313.618zM64.195 103.633c.111.375.088.776-.06 1.134l-16.798 39.872a1.695 1.695 0 01-2.216.902l-6.525-2.75a10.78 10.78 0 00.163-6.616 10.745 10.745 0 00-6.15-6.875c-5.268-2.22-11.33.085-13.834 5.142l-13.527-5.7a1.682 1.682 0 01-.964-1.082c-.11-.374-.09-.776.062-1.133l6.91-16.398-1.24.166a8.892 8.892 0 01-4.646-.618 8.9 8.9 0 01-5.089-5.69 8.942 8.942 0 01.334-5.985c1.908-4.528 7.144-6.66 11.674-4.753a8.89 8.89 0 013.688 2.892l.746 1.004 4.418-10.49a1.693 1.693 0 012.218-.901l39.873 16.795c.466.196.817.59.963 1.084zm300.725-5.296a2.228 2.228 0 01-1.415-.504l-44.297-36.314a2.24 2.24 0 01-.31-3.154l5.941-7.25a14.282 14.282 0 008.337 2.696c4.297 0 8.318-1.902 11.037-5.222 4.8-5.853 4.156-14.413-1.322-19.493l12.318-15.028a2.237 2.237 0 011.735-.815c.52 0 1.025.178 1.42.504l18.22 14.934.252-1.635a11.76 11.76 0 012.531-5.665 11.766 11.766 0 019.134-4.32c2.716 0 5.37.952 7.473 2.677 5.032 4.125 5.767 11.573 1.643 16.604a11.786 11.786 0 01-5.057 3.596l-1.553.567 11.653 9.556a2.245 2.245 0 01.313 3.153L366.658 97.52a2.238 2.238 0 01-1.738.817z"/><path fill="#fee600" d="M268.788 167.542c-5.377 0-10.84-2.767-13.595-6.883-1.36-2.036-2.637-5.313-.972-9.335.68-1.641 1.588-2.943 2.703-3.866l.963-.8-5.427-1.952a1.696 1.696 0 01-1.018-2.167l14.66-40.706a1.705 1.705 0 011.6-1.12c.193 0 .385.035.566.1l40.402 14.552c-.11 1.792-3.655 9.837-4.833 12.348-4.528-1.94-7.923-2.844-10.649-2.844-4.175 0-6.885 2.2-8.279 6.729-1.029 3.337-.725 6.144.9 8.342 3.122 4.23 10.205 4.889 12.911 4.983l-3.399 13.452a1.7 1.7 0 01-2.155.99l-11.356-4.161-.163.817c-1.445 7.322-6.132 11.52-12.857 11.52z"/></svg>