<svg xmlns="http://www.w3.org/2000/svg" width="114" height="74"><path fill="#fff" d="M9.844 7.168l7.142-2.626 72.78-.02 7.103 4.524-14.106 12.63 6.892 7.393 12.184 3.78 9.768 5.77-9.86 10.893-24.254-8.307L73.6 45.09l.035 16.089-4.344 4.155z"/><path fill="none" stroke="#000" stroke-miterlimit="20" stroke-width="1.7" d="M9.844 7.168v0l7.142-2.626v0l72.78-.02v0l7.103 4.524v0l-14.106 12.63v0l6.892 7.393v0l12.184 3.78v0l9.768 5.77v0l-9.86 10.893v0l-24.254-8.307v0L73.6 45.09v0l.035 16.089v0l-4.344 4.155v0L9.844 7.168v0z"/><path d="M35.055 39.221l34.398 34.465 3.844-3.997c2.107-2.18 3.854-4.025 3.864-4.075.01-.05-.797-.978-1.824-2.066-1.006-1.089-1.843-2.047-1.862-2.127-.02-.08.81-.987 1.847-2.022l1.877-1.875-1.536-1.616c-1.643-1.728-1.833-2.057-1.572-2.695.09-.209.89-1.146 1.786-2.103l1.618-1.714-2.022-2.026-2.033-2.038 1.947-1.943 1.946-1.943 3.987 3.994 3.985 3.993 2.047-2.042 2.046-2.044 4.036 4.044 4.036 4.044.78-.777a65.36 65.36 0 001.976-2.113l1.208-1.325-3.856-3.865-3.856-3.863-.59.448c-.318.26-.997.877-1.497 1.376a30.88 30.88 0 01-1.587 1.464l-.679.538-3.946-3.993-3.946-4.014-2.067 2.063-2.077 2.072-2.09-2.097-2.094-2.095-1.948 1.942-1.946 1.943 2.093 2.097 2.092 2.096-2.097 2.093-2.096 2.093 1.944 1.947 1.942 1.947-1.947 1.943-1.946 1.943 2.043 2.047 2.042 2.046-2.096 2.093-2.098 2.092-28.229-28.284C25.367 21.727 12.662 8.957 12.662 8.918c0-.04.94-.996 2.087-2.103l2.086-2.023 2.033 2.037 2.042 2.046 1.95-1.942 1.945-1.942 1.943 1.946 1.944 1.947 2.095-2.093 2.097-2.093 2.093 2.097 2.093 2.096 1.946-1.943 1.947-1.943-2.093-2.097L36.78.812l-1.95 1.943-1.947 1.943-1.942-1.947L28.998.804l-2.096 2.093-2.097 2.094-2.043-2.048L20.72.896 18.772 2.84l-1.946 1.943-1.994-1.998L12.84.788l-2.097 2.093-2.096 2.093-2.044-2.047L4.563.88l-1.95 1.944L.667 4.767z"/><path d="M41.74 5.265a62 62 0 001.834 2.057L44.949 8.8l1.997-1.994 1.997-1.992 2.082 2.047 2.103 2.046 2.107-2.042 2.087-2.044 1.943 1.948 1.942 1.946 1.947-1.943L65.1 4.83l-1.943-1.947L61.215.935 59.328 2.82 57.44 4.702l-.34-.219c-.816-.54-2.3-1.788-3.188-2.677l-.977-.978-1.996 1.993-1.997 1.993L47 2.867 45.056.92 43.17 2.804l-1.897 1.892zm23.73-.145c.05.09.916.978 1.933 1.976l1.853 1.797L71.313 6.8l2.056-2.073 2.114 2.117 2.112 2.116 1.507-1.644c1.727-1.863 1.957-2.192 1.828-2.522-.05-.129-.887-1.067-1.863-2.106L77.293.831l-1.957 1.954-1.957 1.953-1.943-1.948L69.493.844l-2.046 2.043C65.868 4.461 65.41 4.98 65.47 5.12zm17.932 1.871l1.942 1.947 2.097-2.092 2.097-2.092L91.63 6.85l2.092 2.097-8.087 8.071-8.087 8.071 4.037 4.044 4.034 4.044 1.948-1.944 1.946-1.943 3.986 3.994 3.986 3.993 2.096-2.092 2.097-2.094 4.036 4.045 4.035 4.043-4.202 4.195-4.204 4.195.489.37c1.225.908 2.44 1.927 3.189 2.676l.826.829 4.044-4.036 4.044-4.036-2.093-2.096-2.093-2.097 1.948-1.943 1.946-1.943-4.035-4.043-4.036-4.044-1.946 1.942-1.948 1.943-3.986-3.992-3.985-3.994-2.107 2.102-2.106 2.103-1.216-1.338c-1.733-1.937-2.312-2.656-2.351-2.955-.04-.219 1.038-1.354 7.757-8.181l7.788-7.912-4.025-4.034L93.432.867 91.486 2.81l-1.948 1.944-1.944-1.947L85.652.86l-2.098 2.092-2.095 2.093 1.943 1.947z"/></svg>